<svg id="グループ_8" data-name="グループ 8" xmlns="http://www.w3.org/2000/svg" xmlns:xlink="http://www.w3.org/1999/xlink" width="248" height="17.906" viewBox="0 0 248 17.906">
  <defs>
    <linearGradient id="linear-gradient" y1="0.5" x2="1" y2="0.5" gradientUnits="objectBoundingBox">
      <stop offset="0" stop-color="#346728"/>
      <stop offset="0.511" stop-color="#508433"/>
    </linearGradient>
  </defs>
  <path id="パス_33" data-name="パス 33" d="M372.409,173.239h2.411a.772.772,0,0,1,.71.47l6.592,15.492a.772.772,0,0,1-.71,1.073h-2.205a.772.772,0,0,1-.714-.48l-1.155-2.833a.771.771,0,0,0-.714-.48h-6.115a.772.772,0,0,0-.715.48l-1.155,2.833a.772.772,0,0,1-.715.48h-2.109a.771.771,0,0,1-.71-1.073l6.592-15.492A.772.772,0,0,1,372.409,173.239Zm2.957,8.862-1.067-2.6a.792.792,0,0,0-1.466,0l-1.067,2.6a.792.792,0,0,0,.733,1.092h2.134A.792.792,0,0,0,375.366,182.1Z" transform="translate(-337.437 -172.803)" fill="#3b3938"/>
  <path id="パス_34" data-name="パス 34" d="M410.115,173.451H412.4a.765.765,0,0,1,.609.3l6.321,8.3a.765.765,0,0,0,1.375-.463v-7.378a.765.765,0,0,1,.765-.765h2.142a.766.766,0,0,1,.766.765V189.6a.766.766,0,0,1-.766.766h-2.021a.767.767,0,0,1-.609-.3l-6.587-8.646a.765.765,0,0,0-1.374.464V189.6a.766.766,0,0,1-.765.766h-2.142a.766.766,0,0,1-.765-.766V174.216A.765.765,0,0,1,410.115,173.451Z" transform="translate(-356.433 -172.894)" fill="#3b3938"/>
  <path id="パス_35" data-name="パス 35" d="M452.311,174.214a.762.762,0,0,1,.763-.763h5.834c5.315,0,8.988,3.648,8.988,8.408v.049c0,4.76-3.673,8.457-8.988,8.457h-5.834a.762.762,0,0,1-.763-.763Zm3.721,3.358v8.672a.763.763,0,0,0,.763.763h2.113a4.82,4.82,0,0,0,5.1-5.05v-.048a4.858,4.858,0,0,0-5.1-5.1h-2.113A.763.763,0,0,0,456.032,177.572Z" transform="translate(-374.852 -172.894)" fill="#3b3938"/>
  <path id="パス_36" data-name="パス 36" d="M498.24,173.239h2.42a.764.764,0,0,1,.7.465l6.6,15.506a.765.765,0,0,1-.7,1.064h-2.22a.765.765,0,0,1-.708-.476l-1.158-2.842a.764.764,0,0,0-.708-.476H496.34a.764.764,0,0,0-.708.476l-1.159,2.842a.765.765,0,0,1-.708.476h-2.124a.765.765,0,0,1-.7-1.064l6.6-15.506A.765.765,0,0,1,498.24,173.239Zm2.977,8.9-1.068-2.607a.808.808,0,0,0-1.495,0l-1.068,2.607a.764.764,0,0,0,.707,1.054h2.216A.764.764,0,0,0,501.217,182.14Z" transform="translate(-391.387 -172.803)" fill="#3b3938"/>
  <g id="グループ_7" data-name="グループ 7">
    <path id="パス_37" data-name="パス 37" d="M340.776,172.749l-8.871,8.86a.859.859,0,0,0,.607,1.466h4.351a.859.859,0,0,1,.859.859v5.6a.859.859,0,0,0,.859.859h2.789a.859.859,0,0,0,.859-.86l-.011-16.189A.843.843,0,0,0,340.776,172.749Z" transform="translate(-323.12 -172.487)" fill="url(#linear-gradient)"/>
    <path id="パス_38" data-name="パス 38" d="M326.465,183.064a.845.845,0,0,0,.6-1.444l-8.911-8.9a.833.833,0,0,0-1.422.59l-.012,16.226a.845.845,0,0,0,.844.845h2.817a.845.845,0,0,0,.845-.845v-5.628a.845.845,0,0,1,.845-.845Z" transform="translate(-316.717 -172.476)" fill="#68a356"/>
  </g>
  <path id="パス_39" data-name="パス 39" d="M543.12,184.044c-.069,3.249-1.316,4.868-3.963,6.06l-1.289-1.152c2.414-.851,3.592-1.975,3.647-4.909h-4.58v-1.426h10.3v1.426Zm-4.333-3.4v-1.494h6.7v1.494Zm8.981.836a9.66,9.66,0,0,0-1.439-1.028l.521-.768a7.533,7.533,0,0,1,1.44,1.028Zm.4-1.741a6.026,6.026,0,0,0-1.385-.932l.507-.74a6.238,6.238,0,0,1,1.384.932Z" transform="translate(-411.135 -174.873)" fill="#3b3938"/>
  <path id="パス_40" data-name="パス 40" d="M566.542,184.553a13.24,13.24,0,0,1-1.865,1.8V192.3h-1.413v-4.9a16.37,16.37,0,0,1-2.783,1.6l-.891-1.1a16.249,16.249,0,0,0,6.28-4.662l1.1.919c.055.042.1.082.1.138C567.063,184.5,566.651,184.539,566.542,184.553Z" transform="translate(-420.848 -177.095)" fill="#3b3938"/>
  <path id="パス_41" data-name="パス 41" d="M578.312,189.264v-1.741h9.748v1.741Z" transform="translate(-428.875 -178.927)" fill="#3b3938"/>
  <path id="パス_42" data-name="パス 42" d="M602.871,181.488c-.1.082-.1.11-.1.178a28.656,28.656,0,0,1-.068,3.373,6.987,6.987,0,0,1-2.961,4.977l-1.522-1.111c1.316-.768,2.933-1.933,2.933-5.347a20.247,20.247,0,0,0-.15-2.591l1.659.11c.247.014.4.055.4.206C603.063,181.337,603.035,181.35,602.871,181.488Zm2.536,8.543-1.165-.9V180.8l1.59.192c.124.014.384.041.384.178,0,.055-.028.1-.151.206,0,.014-.164.151-.164.165v5.992a12.178,12.178,0,0,0,3.62-3.51l.932,1.385A18.246,18.246,0,0,1,605.407,190.03Z" transform="translate(-437.412 -176.046)" fill="#3b3938"/>
  <path id="パス_43" data-name="パス 43" d="M632.653,184.008c-.343.328-2.29,2.29-3.99,4.1a12.334,12.334,0,0,1,1.152,1.522l-1.385,1.11a13.825,13.825,0,0,0-3.456-4.113l1.07-1.069a17.557,17.557,0,0,1,1.508,1.344c1.069-1.069,1.851-1.878,2.784-2.879h-7.72v-1.55H631.5a1.416,1.416,0,0,0,.644-.3l1.138,1.33C633.009,183.706,632.8,183.87,632.653,184.008Z" transform="translate(-447.87 -176.632)" fill="#3b3938"/>
  <path id="パス_44" data-name="パス 44" d="M653.42,183.061a19.951,19.951,0,0,1-2.468,2.4v4.977h-1.577V186.6a13.686,13.686,0,0,1-3.332,1.591l-.946-1.358a12.381,12.381,0,0,0,6.417-4.072h-5.183v-1.4h6.362a.875.875,0,0,0,.494-.192l1.138,1.22A3.823,3.823,0,0,0,653.42,183.061Zm-2.29-2.043a13.137,13.137,0,0,0-2.839-1.453l.672-1.33a11.307,11.307,0,0,1,2.948,1.508Zm3.112,7.267a9.371,9.371,0,0,0-2.66-2.167l.9-1.042a8.787,8.787,0,0,1,2.8,2Z" transform="translate(-457.509 -174.945)" fill="#3b3938"/>
  <path id="パス_45" data-name="パス 45" d="M667.153,189.264v-1.741H676.9v1.741Z" transform="translate(-466.965 -178.927)" fill="#3b3938"/>
  <path id="パス_46" data-name="パス 46" d="M692.271,184.322a10.292,10.292,0,0,0-2.728-1.33l.753-1.385a9.2,9.2,0,0,1,2.811,1.426Zm4.2,2.331a22.249,22.249,0,0,1-4.607,3.03c-.178.1-.206.1-.233.206-.041.178-.069.247-.137.247-.123,0-.274-.288-.316-.37l-.726-1.344a17.761,17.761,0,0,0,8.09-6.7l1.1,1.357A15.594,15.594,0,0,1,696.467,186.652Zm-2.8-5.539a8.67,8.67,0,0,0-2.688-1.234l.727-1.316a8.291,8.291,0,0,1,2.77,1.22Zm4.182-.357a5.728,5.728,0,0,0-1.344-1.028l.576-.754A6.1,6.1,0,0,1,698.469,180Zm1.4-1.111a6.858,6.858,0,0,0-1.426-1.042l.576-.754a6.6,6.6,0,0,1,1.453,1.042Z" transform="translate(-476.565 -174.78)" fill="#3b3938"/>
  <path id="パス_47" data-name="パス 47" d="M719.245,189.01,718,188.475c.233-.4.274-.48.658-1.111.26-.425.288-.466.548-.919l-2.5.507,1.028,5.238-1.468.343-.946-5.293-2.508.521-.494-1.234,2.77-.535-.453-2.455,1.3-.15c.069-.014.356-.028.356.123,0,.027,0,.055-.109.192-.027.042-.1.138-.083.206l.371,1.81,3.208-.617a.817.817,0,0,0,.466-.356l1.111.809C720.657,186.556,720.192,187.351,719.245,189.01Z" transform="translate(-486.331 -177.152)" fill="#3b3938"/>
  <path id="パス_48" data-name="パス 48" d="M733.784,189.264v-1.741h9.749v1.741Z" transform="translate(-495.533 -178.927)" fill="#3b3938"/>
</svg>
